<svg version="1.1" xmlns="http://www.w3.org/2000/svg" xmlns:xlink="http://www.w3.org/1999/xlink" x="0px" y="0px"
	 viewBox="0 0 6000 6000" style="enable-background:new 0 0 6000 6000;" xml:space="preserve" id="JPMap">
<g id="JP">
	<g id="JP-01" class="prefecture">
		<g class="pref-shape">
		<path class="st0" d="M4069.8,501l-10.8,6.3l-1.5,9.5l-11.4,11.3l-15.6,0.4h-10.4l-9.8-9.7l-2.9,9.2l4.5,11.7l-17.6,39.5l34.2,78.3
			l11.6,68.8l-29.9,73.4l0.2,77.5l-18.2,29.7l-31.1,10.3l-15.6,22.3l11,30.2l-4.9,22.1l13.4,28.1l-1.7,20.1l-21,26.5l-29.9,15.7
			l-32.7-15l1.6-7.8l-43.8,11.2l-4.6-8.2l-27.1-9.4l-28.5-25.4l-8.1-0.9l-7.7,11l-18.6-0.4v28.9l40.1,47.4l-2.2,6.9l-25.5,15.5
			l-18.1,23.3l-0.5,12.3l-8.4,2.6l-5.6-7.3l-9.4-6.5l-8.6,15.1l-23.9,17.8h-20.7l-13.7,6.3l-10.1,15.5l6.5,21.7l0,22.3l-4.3,10.5
			l-8.2,6.9l-1.2,21.7l5.6,8.7l15.4,4.1l9.8,19.1l13.3,1.6l19,18l9.2,21.1l-1.3,23.6l-0.3,12.1l-7.6,1.7l-12.4,26.3l-8.2,28.1
			l9.4,31.1c0,0,8.3,12.2,9.7,12.2c1.4,0,15.7-2.9,15.7-2.9l11.4,5.5l14.3-20.3l29.1-6.6l3.5-9.4l3.1-33.5l15-3.8l15.8-10l8.1-19
			l12.2,1.5l4.4,6.1l-6.8,5.6l1,5.9l5.7-1.3l5.6-6.5l25,5.3l17.9,10.3l14-2.2l15.3-15.2l12.2,2.1l6.6-10.4l-9.4-4.2l-1.7-2.7
			l-18.4-11.9l-14.5-3.8l-11-12.2l-26-23.8l-11.8-15.9l-10.2-4.6l-28.2,5.9l-29.6-21.9l-23.8-10.4l-1.5-23.3l16.6-36.5l23.2-22
			l28.1,1.5l18.1,0.9l17.3,18l17.4,13.2l5,16.9l16.4,6.4l-3.8,3.2l-7.6-3.2l-1.4,7.1l15.9,5.3l29.8-32.5l18.3-8.8l34.2-25.1
			l34.3-12.7l39.1,0.5l32.1,13.2l28,21.3l20.8,5l41.7,32.1l93.6,46.3l27.6,4.9l35.8,23.6l22,23.6l13.6-34.6l5.1-30.7l-3.4-26
			l43.4-69.4l49.4-46.9l55.2-40.4l36.9-14.3l28.2,2.5l22.7,11.9l33.5-2l26,3.2l-9.6-14.9l9.6-11.4l18-5.5l15.7,2.9l-3.5,6.3l-7.6,0.4
			l-8.8,1.2l8.4,8.8l21-0.8l10.8-9.6l23.3-11.2l-5.4-6.6l5.4-10.6l17.6,2.1l42.4-10.8l14.1,4.5l12.3-26.6l34.4-16.7l13.9-12.5
			l-33.3-2.8l-34.3,31.7l-34.5-1.1l4.2-8.2l-20-5.5l2.1-5.7l12.9,4.4l17.3,9l-23.3-27.5l-16-49.5l22.6,7.9l-4,7.4l5.4,0.8l7.7-4.5
			l-6.6-8.1l-36.1-12.2l-16.6-34.2l5.2-12.3l4.1-20.2l27.6-35.7l1.3-11.9l19.1-20l4.6-18.1l-7.8-17.6l-31.5,37.9l-69.9,57.5l-38,8
			l-68.2-11.3l-14.6-38.6l-9.4,5.3l-80.6-19.3l-84.8-35.8l-5-9.4l-26.3-17.8l-32.3-18.8l-38.4-36l-58.2-62.6l-0.8-10.2l-19.3-25.1
			l-58.8-59.4l-34-26.5l-8.9-12.1L4069.8,501z"/>
		<polygon class="st0" points="3885.6,522 3876.3,522 3877.4,541.8 3887,565.2 3893.5,544.8 3894.9,525.7 3886.9,518.5 	"/>
		<polygon class="st0" points="3919.1,567.6 3908.5,579.3 3908.5,594.4 3922.4,605 3940.1,599.7 3948.3,591 3934.8,572.5 	"/>
		<polygon class="st0" points="3568.8,1306.1 3588.7,1306.1 3588.7,1315.8 3577.1,1320.7 3573.8,1346.2 3560.4,1349.8 3557.1,1345.3 
			3557.1,1331.7 3553.7,1314.8 	"/>
		</g>
		<text transform="matrix(1 0 0 1 4125.2271 996.8337)" class="text text-eng">HOKKAIDO</text>
		<text transform="matrix(1 0 0 1 4158.3467 996.1978)" class="text text-jpn">北海道</text>
	</g>
	<g id="JP-02" class="prefecture">
		<g class="pref-shape">
		<path class="st0" d="M3689.4,1734.6l10,8.5h43.6l8.4-8.8l15.5-0.6v6.1l20.8,9.4l15.5-2.4l4.5,6l48.1-25.5l-0.4,17.8l22.9,0.3
			l1.6,18.6l-4.6,3.8l-4.4,21l6.5,8.3l26.8-10.6l-1.4-4.1l44.5-22.2l4.9,8.9l23.9-10.6l13.3,6.4l9.8-5.1l-0.3-6.8l19.3-10l-22.2-27.5
			l-8.4,5.9l-20.1-35l-8.8-63.5l5.3-79.6l10.7-44.6l-11.9,12l-19.1,9.2l-19.8-5.3l-21.2-22.2l-10.3-4.6l-17-2.3l-14.6-12.8l-2.3,7.4
			v8.9l-12.6,14.3l-6.9,22.6l-4.2,22.8l-3.1,22.6l8.7,4l11.5-8.5l22.4-8.2l17.6,4l21.2-18.4l3.8-7.1l19.1,29.4l-6.6,19.8l-1.9,19.8
			l-16.7,26.8l-6.5,5.4l-12.3-10l-16.2-7.7l-6.6-12.3l-15.6-3.2l-3.2,26.2l-12.3,14.4l-14.4,0.6l-9.8-15l-9.3-59.1l2.5-8.1l-6.7-8.5
			l-14.6-4.9l-10.1,10.1l-12.6-4.2l-6.3-9.4l-12.1-4.5l-4.4,27.3l-13.6,2.1l-0.2,4.5l10.1,3.8c0,0,4.4,18.2,5.2,17.9
			c0.8-0.3-5.6,34.4-5.6,34.4l-13.2,24.9l-24.2,11.1l-11.5-7.1c0,0-15.8,8-13.9,7.8c1.9-0.2-26.7,31.8-26.7,31.8l1.5,5.2l13.2,4
			l2.9,34.4l17.3,1.3L3689.4,1734.6z"/>
		</g>
		<text transform="matrix(1 0 0 1 3750.6384 1701.0608)" class="text text-eng">AOMORI</text>
		<text transform="matrix(1 0 0 1 3764.3425 1701.3425)" class="text text-jpn">青森県</text>
	</g>
	<g id="JP-03" class="prefecture">
		<g class="pref-shape">
		<polygon class="st0" points="4094.6,1963.9 4085.5,1935.1 4073.6,1945.9 4079.5,1915.4 4079,1889.4 4070,1866.8 4073.8,1857.5 
			4069.5,1848.6 4049.8,1831.6 4058.1,1816.4 4043.4,1801.4 4050.2,1796.7 4036.9,1766.1 4018.4,1743.2 3999,1753.2 3999.4,1760 
			3989.6,1765.1 3976.3,1758.7 3952.3,1769.3 3947.5,1760.4 3902.9,1782.5 3904.3,1786.7 3877.5,1797.3 3871,1789 3871.3,1787.8 
			3851,1835 3853.1,1881.8 3838.4,1881.6 3843.3,1942.8 3812,1993.2 3835.8,2037.6 3833.2,2105.6 3848.5,2104.7 3879.3,2125.2 
			3911.5,2127.7 3904.3,2140 3929.3,2154 3943.4,2139 3968.3,2147.3 3983.2,2097.1 4008.9,2100.6 4007,2093.5 4016.6,2093.5 
			4019,2106.8 4027.2,2105.7 4027.2,2095.6 4028.4,2088.7 4052.4,2085.8 4056.1,2077.8 4045.5,2070.5 4065.2,2068.7 4049.3,2057.3 
			4067.3,2050.3 4059.1,2045 4073.3,2042.6 4073.3,2031.9 4062.2,2032.1 4066.3,2028.2 4063.3,2022.6 4080.7,2010.1 4071.3,1998.8 
			4076.9,1992.1 4089.1,1992.3 4093.6,1977.6 4077.4,1983 	"/>
		</g>
		<text transform="matrix(1 0 0 1 3886.2842 1960.9348)" class="text text-eng">IWATE</text>
		<text transform="matrix(1 0 0 1 3883.9246 1958.7764)" class="text text-jpn">岩手県</text>
	</g>
	<g id="JP-04" class="prefecture">
		<g class="pref-shape">
		<polygon class="st0" points="4008.9,2100.6 3983.2,2097.1 3968.3,2147.3 3943.4,2139 3929.3,2154 3904.3,2140 3911.5,2127.7 
			3879.3,2125.2 3848.5,2104.7 3833.2,2105.6 3833.2,2105.1 3787.8,2122.5 3786.8,2121.8 3809,2151.6 3789.7,2195.7 3800,2231.2 
			3751.8,2323.6 3735.3,2324.6 3734.7,2347 3768.9,2348.9 3776.6,2361.3 3817.6,2366.8 3814.7,2386.8 3852.7,2386.5 3855,2363.2 
			3865.3,2363.5 3861.2,2349.7 3875,2284.1 3898.1,2264.5 3893.2,2260.2 3888.3,2262.4 3887.9,2253.6 3898.1,2247.1 3906.8,2250.4 
			3912.6,2258.9 3915.5,2254.3 3912.4,2249.6 3925.6,2240.9 3951.3,2240.9 3955.7,2244.4 3965.1,2244.4 3963.6,2251.6 3976.4,2256.2 
			3968.8,2261.1 3982.9,2271.4 3988.4,2260.8 3983.9,2248 3977.2,2247.4 3988.4,2240.9 3974.8,2235.4 3979,2231.5 3978,2215 
			3990.7,2218.6 3987.5,2205.8 3972.7,2201 3987,2186.4 3969.6,2180.7 3970,2175.2 3980.2,2172.1 3994.4,2165.7 3993.9,2157.5 
			3984.2,2149.2 3998.5,2135.4 3999.6,2119.8 4016.6,2129.9 	"/>
		</g>
		<text transform="matrix(1 0 0 1 3810.989 2218.1216)" class="text text-eng">MIYAGI</text>
		<text transform="matrix(1 0 0 1 3815.3608 2216.4214)" class="text text-jpn">宮城県</text>
	</g>
	<g id="JP-05" class="prefecture">
		<g class="pref-shape">
		<polygon class="st0" points="3694.3,2076.2 3736.1,2093.7 3741.5,2087.7 3787.8,2122.5 3833.2,2105.1 3835.8,2037.6 3812,1993.2 
			3843.3,1942.8 3838.4,1881.6 3853.1,1881.8 3851,1835 3871.3,1787.8 3875.4,1768 3880,1764.2 3878.4,1745.6 3855.5,1745.3 
			3855.9,1727.5 3807.7,1752.9 3803.2,1746.9 3787.7,1749.3 3766.9,1739.9 3766.9,1733.8 3751.3,1734.3 3743,1743.1 3699.4,1743.1 
			3689.4,1734.6 3681.4,1745.9 3664.1,1744.6 3664.5,1749.9 3680.8,1762.4 3667.4,1825.7 3648.7,1854 3634.5,1860.2 3611.8,1852.1 
			3625.2,1883.8 3668.3,1879.1 3658.6,1859.6 3662.3,1842.6 3673,1828.5 3688.3,1834.4 3690.9,1845.2 3684.8,1866.2 3687.2,1871.4 
			3682.2,1880.8 3672.5,1873.3 3672.1,1883.8 3687.2,1920.8 3684.3,1980.1 3670.6,2020.8 3659.2,2025.5 3650.2,2063.9 3687.4,2067 	
			"/>
		<polygon class="st0" points="3675.1,1832.3 3664.8,1845.1 3665.6,1852.1 3662.7,1856.1 3662.5,1861.8 3665.2,1862.8 3668.1,1866.5 
			3677.1,1868.1 3684.9,1861.1 3687.2,1840.9 3682.9,1834.7 	"/>
		</g>
		<text transform="matrix(1 0 0 1 3703.7759 1926.5294)" class="text text-eng">AKITA</text>
		<text transform="matrix(1 0 0 1 3691.8237 1930.8494)" class="text text-jpn">秋田県</text>
	</g>
	<g id="JP-06" class="prefecture">
		<g class="pref-shape">
		<polygon class="st0" points="3616.7,2244.8 3654.3,2264.6 3638.5,2292.3 3620,2289.9 3602.1,2368.7 3717.7,2404.5 3735.9,2386.8 
			3728.7,2367.7 3736.1,2347.1 3734.7,2347 3735.3,2324.6 3751.8,2323.6 3800,2231.2 3789.7,2195.7 3809,2151.6 3786.8,2121.8 
			3741.5,2087.7 3736.1,2093.7 3694.3,2076.2 3687.4,2067 3650.2,2063.9 3648.3,2071.8 3631.1,2125.7 3620,2153.2 3595.9,2175.4 
			3579.5,2209.2 3620.8,2220.1 	"/>
		</g>
		<text transform="matrix(1 0 0 1 3556.2695 2167.8042)" class="text text-eng">YAMAGATA</text>
		<text transform="matrix(1 0 0 1 3631.8584 2216.1396)" class="text text-jpn">山形県</text>
	</g>
	<g id="JP-07" class="prefecture">
		<g class="pref-shape">
		<polygon class="st0" points="3882.4,2418.4 3874.4,2391.5 3868,2372.6 3865.3,2363.5 3855,2363.2 3852.7,2386.5 3814.7,2386.8 
			3817.6,2366.8 3776.6,2361.3 3768.9,2348.9 3736.1,2347.1 3728.7,2367.7 3735.9,2386.8 3717.7,2404.5 3625.3,2375.8 3587.3,2425.3 
			3591.9,2455.7 3518.5,2476.7 3511.4,2531 3524.3,2539.4 3524.3,2596.7 3550.8,2605.1 3640.2,2562.4 3642.9,2549.8 3669.3,2545.2 
			3726.4,2575.9 3729.2,2604.1 3770.4,2629.3 3807.3,2606.4 3838.7,2616.3 3839.1,2605.2 3862.6,2598.3 3875,2583.1 3881.3,2540.1 
			3886.3,2476.3 	"/>
		</g>
		<text transform="matrix(1 0 0 1 3611.728 2501.5195)" class="text text-eng">FUKUSHIMA</text>
		<text transform="matrix(1 0 0 1 3661.1372 2501.4297)" class="text text-jpn">福島県</text>
	</g>
	<g id="JP-08" class="prefecture">
		<g class="pref-shape">
		<polygon class="st0" points="3720.9,2658.1 3728.2,2697.9 3718,2722.7 3614.9,2786.3 3625.1,2807.4 3636,2802.5 3712,2865.4 
			3770.7,2844.2 3853.6,2893.7 3853.6,2889.5 3841.5,2881.3 3818.8,2844 3794.2,2751.8 3807.2,2732.5 3804.5,2710.3 3821.2,2664.5 
			3834.6,2624.2 3838.5,2623.9 3838.7,2616.3 3807.3,2606.4 3770.4,2629.3 3730.1,2604.6 3733.8,2651.9 	"/>
		</g>
		<text transform="matrix(1 0 0 1 3639.3127 2802.1924)" class="text text-eng">IBARAKI</text>
		<text transform="matrix(1 0 0 1 3651.7437 2804.5757)" class="text text-jpn">茨城県</text>
	</g>
	<g id="JP-09" class="prefecture">
		<g class="pref-shape">
		<polygon class="st0" points="3574,2684.7 3548.5,2736.1 3570.5,2758.8 3598.7,2762.6 3621.1,2782.5 3718,2722.7 3728.2,2697.9 
			3720.9,2658.1 3733.8,2651.9 3730.1,2604.6 3729.2,2604.1 3726.4,2575.9 3669.3,2545.2 3642.9,2549.8 3640.2,2562.4 3550.8,2605.1 
			3545.5,2603.4 3545.9,2675.9 	"/>
		</g>
		<text transform="matrix(1 0 0 1 3553.0017 2665.324)" class="text text-eng">TOCHIGI</text>
		<text transform="matrix(1 0 0 1 3564.0732 2667.7427)" class="text text-jpn">栃木県</text>
	</g>
	<g id="JP-10" class="prefecture">
		<g class="pref-shape">
		<polygon class="st0" points="3413.1,2647.8 3379.5,2658.1 3347.6,2716.1 3402.8,2726.2 3390.6,2795.5 3410.7,2828.2 3484.3,2794.9 
			3497,2765.5 3567,2782.5 3611.3,2773.8 3598.7,2762.6 3570.5,2758.8 3548.5,2736.1 3574,2684.7 3545.9,2675.9 3545.5,2603.4 
			3534,2599.8 3524.3,2596.7 3524.3,2594.1 3494,2576.3 	"/>
		</g>
		<text transform="matrix(1 0 0 1 3383.0234 2710.1394)" class="text text-eng">GUNMA</text>
		<text transform="matrix(1 0 0 1 3346.9395 2709.97)" class="text text-jpn">　群馬県</text>
	</g>
	<g id="JP-11" class="prefecture">
		<g class="pref-shape">
		<polygon class="st0" points="3460.1,2864.3 3475.6,2851.9 3541.6,2872.1 3553.5,2882.4 3608.7,2882.4 3655,2873.6 3658.8,2858.5 
			3629.7,2805.3 3625.1,2807.4 3614.9,2786.3 3621.1,2782.5 3611.3,2773.8 3567,2782.5 3497,2765.5 3484.3,2794.9 3414.9,2826.3 
			3416.9,2848.5 	"/>
		</g>
		<text transform="matrix(1 0 0 1 3447.386 2846.0959)" class="text text-eng">SAITAMA</text>
		<text transform="matrix(1 0 0 1 3422.4189 2847.5232)" class="text text-jpn">　埼玉県</text>
	</g>
	<g id="JP-12" class="prefecture">
		<g class="pref-shape">
		<path class="st0" d="M3853.6,2893.7l-82.9-49.4l-58.7,21.2l-76-63l-6.4,2.9l29.1,53.2l-3.7,15.1l-6.5,1.2l16.1,29.4l1.9-3.1h15.5
			l16.1,9.8l-2.1,8.1l8.1,2.3l1.6,7.6l-18,7.7l-11.1,19.3l-18.6,8.5l-1.9,9.7l-3.4,8.8l-6.1-1.2l-3.1,8.9l-10,4.2l13.1,5
			c0,0,0.9,12.1,2.7,13s-11.3,12.2-11.3,12.2l4.4,13.8l0.1,11.8l-3.5,8.9l7.7,7.1l-0.6,6.7l-20,3.4l2.6,4.9l10.5,3.7
			c0,0,0.8,9,2.7,8.9c1.9,0,20.2-3,20.2-3l8.7-8.3l1.5-15.7l22.9-14.9l6.5-10.7l21.5,0.2l16.5-6.2l12.1-8.9l6.5-14.1l2.8-23l-4-24.1
			l28-40.7l35.4-23.5h9.7l14.4-5.2l9,5.2L3853.6,2893.7z"/>
		</g>
		<text transform="matrix(1 0 0 1 3710.4199 2983.9697)" class="text text-eng">CHIBA</text>
		<text transform="matrix(1 0 0 1 3654.9126 2986.3726)" class="text text-jpn">　千葉県</text>
	</g>
	<g id="JP-13" class="prefecture">
		<g class="pref-shape">
		<polygon class="st0" points="3648.6,2874.9 3608.7,2882.4 3553.5,2882.4 3541.6,2872.1 3475.6,2851.9 3460.7,2863.8 3476.3,2893.6 
			3524.8,2926.2 3544.7,2926.2 3572.3,2948.3 3581.3,2917.5 3619.2,2941.5 3629.6,2939.5 3627.5,2935.5 3632.7,2922 3639.8,2915.4 
			3654,2917.9 3661.2,2909.9 3664.7,2904.2 	"/>
		</g>
		<text transform="matrix(1 0 0 1 3499.6895 2916.5325)" class="text text-eng">TOKYO</text>
		<text transform="matrix(1 0 0 1 3502.0234 2918.8345)" class="text text-jpn">東京都</text>
	</g>
	<g id="JP-14" class="prefecture">
		<g class="pref-shape">
		<path class="st0" d="M3457.6,2964.6l-0.8,10.9l18.2-2.6l2.3,23.1l-8.9,11.1l10.3,26.3l15.2,5.3l3-4l11.9,2.9l-6.1-20.4l30.6-17.3
			l34.5-2.5l23.1,12c0,0,3.7,27.9,5.3,28.3s13.9-3.9,13.9-3.9l-2.8-10.1l9.2-4l7.5-11.8l-23.2-11.1l2.1-19.2l8.3-10.5l-5.4-9.6
			l17.1-2l10.5-8.6l-3.9-7.6l-10.4,2l-37.9-24l-9.1,30.8l-27.5-22.1h-19.9l-27-18.1l0.6,27L3457.6,2964.6z"/>
		</g>
		<text transform="matrix(1 0 0 1 3506.4976 3150.8955)" class="text text-eng">KANAGAWA</text>
		<text transform="matrix(1 0 0 1 3518.3416 3150.5183)" class="text text-jpn">神奈川県</text>
	</g>
	<g id="JP-15" class="prefecture">
		<g class="pref-shape">
		<path class="st0" d="M3638.5,2292.3l15.8-27.6l-37.5-19.8l4-24.7l-41.2-10.9l-1.6,3.3l-15.1,38.6l-5.9,45.4l-41.7,44.7l-28,8.5
			c0,0-27.9,17.4-26.4,18.3s-24,18-24,18l-9.8,28.8l-11.3,27.5l-22.6,25.4l-10,19.7l-27.2,17.2l-47.1,37.5h-19.8l-44,27.3l-57.7,17
			l21.8,13.4l12,38l28.2-31.6l27,4.3l1.5,21.3l50.1-13.6l22.3-31.7l32.7-8.4l30.6,69.1l80.2-70.9l30.3,17.8v-54.6l-12.9-8.5l7-54.3
			l73.4-21.1l-4.6-30.3l37.9-49.5l-23.1-7.2l17.9-78.8L3638.5,2292.3z"/>
		<polygon class="st0" points="3315.2,2345 3319.6,2346.6 3325.9,2337.9 3331.4,2336.6 3338.2,2342.4 3336.6,2348 3326.7,2357.1 
			3325.6,2360.7 3326.9,2364.8 3323.4,2374.2 3312.2,2378 3310.6,2382.2 3318.5,2385.7 3338.8,2381.3 3370.5,2357.3 3385,2317.8 
			3357.2,2320 3358.7,2306.7 3364.4,2297.3 3371.5,2275.9 3374.1,2259.5 3372.2,2256.8 3360.2,2260.6 3356.2,2273.4 3348.4,2277.2 
			3342.7,2285.7 3330.9,2294.2 3316.4,2319.4 3313.4,2333 	"/>
		</g>
		<text transform="matrix(1 0 0 1 3341.3579 2555.6646)" class="text text-eng">NIIGATA</text>
		<text transform="matrix(1 0 0 1 3435.0845 2440.5034)" class="text text-jpn">新潟県</text>
	</g>
	<g id="JP-16" class="prefecture">
		<g class="pref-shape">
		<polygon class="st0" points="3028.1,2650.1 3026.4,2751.3 3040.2,2739.1 3053.8,2741.2 3064.8,2758.4 3108,2716.7 3186,2730.1 
			3215.1,2687.1 3221.1,2636.9 3209.3,2599.7 3187.5,2586.3 3166.4,2592.5 3150.1,2603.4 3140.1,2632 3125.7,2642.4 3102.8,2641.7 
			3063.4,2613 3071.1,2600.7 3074.6,2591.7 3044.5,2604.3 	"/>
		</g>
		<text transform="matrix(1 0 0 1 3030.938 2685.5676)" class="text text-eng">TOYAMA</text>
		<text transform="matrix(1 0 0 1 3042.6416 2691.208)" class="text text-jpn">富山県</text>
	</g>
	<g id="JP-17" class="prefecture">
		<g class="pref-shape">
		<path class="st0" d="M2977,2790l17,20.4l20.6-4.9l20-37.9l-9.3-6.3l2.9-11.5l-1.8,1.5l1.7-101.3l16.4-45.8l30.1-12.6l2.1-5.5
			l-1-29.1l-7.7,2l-2.8,9.2l-9.9-0.3l-3.7-7.2l-5.6-0.8l-5,4.7l-3.8-1l0-6.7l4-2.4l1.5-7.3l-2.5-3l7.5-12l2.3-5.7l17.8,10.9l11.7-7
			l7.7-16.8l26.6-4.2l6.3-8.7l-4.8-12l2.8-11.3l4.9-2.3l15.7-2.7l-6.5-17.4l-14.4-1.9l-38.3,17.6l-14.5,8.8c0,0-16.7,6.1-17.4,6.5
			c-0.4-0.3-10.5-2.8-10.5-2.8l-24.4,12.5l-16,48l9.4,4.5l1.9,17.4l7.9,20.3l-2,12.2l4.2,8.1l-41.9,82.4l-39.9,45.2l-15.4,9.6
			l-12.3,13.3l-0.8,0.3l27.8,27.8L2977,2790z"/>
		</g>
		<text transform="matrix(1 0 0 1 2813.7051 2724.1021)" class="text text-eng">ISHIKAWA</text>
		<text transform="matrix(1 0 0 1 2874.6104 2727.0366)" class="text text-jpn">石川県</text>
	</g>
	<g id="JP-18" class="prefecture">
		<g class="pref-shape">
		<polygon class="st0" points="2765.4,2977.3 2808.1,2983.4 2851.8,2951 2860.2,2952.9 2896.1,2930.8 2893.1,2904.6 2919.1,2907.3 
			2938.4,2880.9 3024.2,2876.6 3030.1,2865.1 3010.6,2824.5 3015.8,2803.1 3014.6,2805.5 2994,2810.4 2977,2790 2935.4,2785.3 
			2907.6,2757.5 2886.3,2766.3 2887.4,2777 2852.4,2829.9 2862.2,2855.9 2880.5,2879.4 2875.8,2906.2 2867.8,2909.5 2866.5,2885.5 
			2852.4,2893.1 2856.9,2915.4 2843.4,2921.2 2823.2,2913 2830.4,2928.8 2820.8,2931.4 2819.6,2938.1 2806.9,2930.6 2798.4,2937.6 
			2809,2946.4 2796.1,2951.2 2784.4,2952.2 2792.2,2940 2784.4,2939.8 2770.7,2950.5 2761.2,2947 2762.8,2935.9 2756.4,2932.2 
			2749.6,2956.1 	"/>
		</g>
		<text transform="matrix(1 0 0 1 2877.8584 2854.0552)" class="text text-eng">FUKUI</text>
		<text transform="matrix(1 0 0 1 2819.3447 2857.1597)" class="text text-jpn">　福井県</text>
	</g>
	<g id="JP-19" class="prefecture">
		<g class="pref-shape">
		<polygon class="st0" points="3392.6,2857.3 3392.8,2847.3 3347.8,2838.1 3309.6,2867.5 3313.2,2914.6 3323.9,2946.5 3322,2997.7 
			3344.9,2993.3 3352.2,3024 3379,3023.7 3375.5,2973.2 3390.1,2965.7 3409.2,2983 3456.8,2974.6 3457.6,2964.6 3498.4,2935.1 
			3497.8,2908.1 3476.3,2893.6 3460.7,2863.8 3460.1,2864.3 3416.9,2848.5 3416.8,2847 3408.8,2856.9 	"/>
		</g>
		<text transform="matrix(1 0 0 1 3377.3784 3235.5437)" class="text text-eng">YAMANASHI</text>
		<text transform="matrix(1 0 0 1 3332.0273 2938.7773)" class="text text-jpn">山梨県</text>
	</g>
	<g id="JP-20" class="prefecture">
		<g class="pref-shape">
		<polygon class="st0" points="3176.1,2803.1 3191.3,2813.3 3161.2,2855.7 3143.7,2854.7 3133.1,2874.4 3155.4,2883.8 3180.3,2946.8 
			3189.5,2945.4 3189,2989.7 3177.5,2996 3182.3,3020.2 3223.3,3020 3294.2,2982.8 3304.2,2929.7 3314.4,2918.3 3313.2,2914.6 
			3309.6,2867.5 3347.8,2838.1 3392.8,2847.3 3392.6,2857.3 3408.8,2856.9 3416.8,2847 3414.9,2826.3 3410.7,2828.2 3390.6,2795.5 
			3402.8,2726.2 3347.6,2716.1 3379.5,2658.1 3413.1,2647.8 3413.8,2647.2 3383.1,2578 3350.4,2586.5 3328.1,2618.1 3278,2631.7 
			3276.5,2610.4 3249.6,2606.1 3221.3,2637.7 3221.1,2636.9 3215.1,2687.1 3186,2730.1 3180.4,2729.2 3197.1,2750.5 	"/>
		</g>
		<text transform="matrix(1 0 0 1 3199.8857 2809.5974)" class="text text-eng">NAGANO</text>
		<text transform="matrix(1 0 0 1 3172.4927 2804.0581)" class="text text-jpn">　長野県</text>
	</g>
	<g id="JP-21" class="prefecture">
		<g class="pref-shape">
		<polygon class="st0" points="2941.9,3016.7 2970.9,3011.2 2997.4,3037.3 3016.4,2983.2 3064.7,2973.5 3105,3012.7 3122.3,2999.9 
			3152.3,3015.6 3179.1,3003.7 3177.5,2996 3189,2989.7 3189.5,2945.4 3180.3,2946.8 3155.4,2883.8 3133.1,2874.4 3143.7,2854.7 
			3161.2,2855.7 3191.3,2813.3 3176.1,2803.1 3197.1,2750.5 3180.4,2729.2 3108,2716.7 3064.8,2758.4 3053.8,2741.2 3040.2,2739.1 
			3028.1,2749.8 3025.2,2761.3 3034.5,2767.6 3015.8,2803.1 3010.6,2824.5 3030.1,2865.1 3024.2,2876.6 2938.4,2880.9 2919.1,2907.3 
			2918,2907.2 2951.5,2962.8 	"/>
		</g>
		<text transform="matrix(1 0 0 1 3004.3086 2936.8857)" class="text text-eng">GIFU</text>
		<text transform="matrix(1 0 0 1 2985.5703 2938.7773)" class="text text-jpn">岐阜県</text>
	</g>
	<g id="JP-22" class="prefecture">
		<g class="pref-shape">
		<polygon class="st0" points="3491.3,3072.6 3493.3,3061.2 3487,3048.1 3493.9,3038.8 3478.7,3033.5 3468.3,3007.1 3477.2,2996 
			3475,2972.9 3456.8,2975.5 3456.8,2974.6 3409.2,2983 3390.1,2965.7 3375.5,2973.2 3379,3023.7 3352.2,3024 3344.9,2993.3 
			3322,2997.7 3323.9,2946.5 3314.4,2918.3 3304.2,2929.7 3294.2,2982.8 3231.1,3015.9 3234.2,3034.1 3192.8,3102.4 3165.6,3112.8 
			3165.3,3154 3187,3148.8 3226.2,3156.9 3272,3153.7 3314.2,3167.3 3317.1,3135.2 3336.7,3108.3 3341.1,3089.5 3369,3078.5 
			3379.1,3056.2 3392,3043.2 3425.2,3042.1 3453.1,3063.1 3428.3,3064.9 3422.6,3101.8 3418.1,3140.9 3436.1,3165.4 3468.2,3155.4 
			3478.6,3126.3 3501,3097 3503.3,3081.6 	"/>
		</g>
		<text transform="matrix(1 0 0 1 3217.5413 3105.0498)" class="text text-eng">SHIZUOKA</text>
		<text transform="matrix(1 0 0 1 3172.4927 3109.1667)" class="text text-jpn">　静岡県</text>
	</g>
	<g id="JP-23" class="prefecture">
		<g class="pref-shape">
		<polygon class="st0" points="3231.1,3015.9 3223.3,3020 3182.3,3020.2 3179.1,3003.7 3152.3,3015.6 3122.3,2999.9 3105,3012.7 
			3064.7,2973.5 3016.4,2983.2 2997.6,3036.6 3004.4,3055.9 3006.2,3055.2 3010.7,3062.5 3014.9,3059.5 3023.1,3063.8 3025.1,3056.5 
			3035.8,3054.1 3042.2,3060 3034.5,3067.9 3036.3,3069.2 3030.4,3078.4 3029.2,3092.9 3036.5,3110.6 3032.1,3126.6 3033.2,3130.3 
			3046.4,3141.3 3054.9,3145.9 3058.4,3137.4 3047.4,3127.3 3054.7,3100 3063.2,3110.2 3071.8,3122.6 3098.6,3126 3110,3115.7 
			3131.1,3123.8 3133.7,3136.6 3120.6,3137.9 3117.2,3144.6 3091.5,3155.1 3079.9,3153.1 3068.2,3172.7 3096.6,3170.4 3165.3,3154 
			3165.6,3112.8 3192.8,3102.4 3234.2,3034.1 	"/>
		</g>
		<text transform="matrix(1 0 0 1 3065.3296 3076.8433)" class="text text-eng">AICHI</text>
		<text transform="matrix(1 0 0 1 3051.7278 3079.1221)" class="text text-jpn">愛知県</text>
	</g>
	<g id="JP-24" class="prefecture">
		<g class="pref-shape">
		<polygon class="st0" points="3028.1,3189.2 3004.5,3182.4 2972.4,3162.9 2976.5,3147.4 2968.5,3146.6 2967.6,3132.3 2983,3111.6 
			2994.8,3085.1 2988.3,3079.4 2992.8,3074.7 3005.7,3066.2 3004.2,3056 3004.4,3055.9 2997.6,3036.6 2997.4,3037.3 2970.9,3011.2 
			2945.7,3016 2955.6,3035.4 2931.4,3103 2889.7,3099.3 2879.9,3119.6 2868.2,3123.6 2879.5,3149.5 2870.7,3174.8 2907.2,3190.2 
			2905.4,3204.3 2881,3209.5 2881,3308.7 2868.9,3308 2843.6,3323.4 2832.5,3351.7 2849.8,3381.2 2864.3,3382.2 2869.2,3367.6 
			2884.1,3340.9 2892.8,3340.9 2916.5,3320.5 2908.1,3296.8 2912.3,3288.3 2922.5,3292.6 2925.7,3285 2920.1,3279.4 2978.4,3250 
			3008.7,3244.5 3015.5,3250 3031.6,3253.4 3044.8,3247 3046.4,3220.8 3046.8,3203.6 	"/>
		</g>
		<text transform="matrix(1 0 0 1 2920.7061 3219.9631)" class="text text-eng">MIE</text>
		<text transform="matrix(1 0 0 1 2909.8674 3225.9001)" class="text text-jpn">三重県</text>
	</g>
	<g id="JP-25" class="prefecture">
		<g class="pref-shape">
		<polygon class="st0" points="2825.5,3061.2 2840.5,3103.3 2872.1,3122.2 2879.9,3119.6 2889.7,3099.3 2931.4,3103 2955.6,3035.4 
			2945.7,3016 2941.9,3016.7 2951.5,2962.8 2918,2907.2 2893.1,2904.6 2896.1,2930.8 2860.2,2952.9 2851.8,2951 2812.3,2980.4 
			2830.1,3005.9 	"/>
		</g>
		<text transform="matrix(1 0 0 1 2826.4609 3052.77)" class="text text-eng">SHIGA</text>
		<text transform="matrix(1 0 0 1 2712.7148 2878.4629)" class="text text-jpn">滋賀県</text>
	</g>
	<g id="JP-26" class="prefecture">
		<g class="pref-shape">
		<polygon class="st0" points="2645.7,2947.2 2667.8,2939.5 2665.2,2972.4 2647.9,2972.8 2640.5,2994.2 2669.7,3012 2689.9,3007.2 
			2699.3,3030.2 2737.9,3041.3 2733.3,3066.7 2757.4,3074.6 2759.5,3087.1 2774.9,3091.8 2777.1,3079.3 2785.4,3078.4 2809.9,3119.9 
			2806.5,3130.9 2814.5,3141 2839.3,3143.1 2843.5,3134.3 2858.4,3135.6 2860,3141.9 2869.3,3143.4 2872.5,3133.5 2868.2,3123.6 
			2872.1,3122.2 2840.5,3103.3 2825.5,3061.2 2830.1,3005.9 2812.3,2980.4 2808.1,2983.4 2765.4,2977.3 2749.6,2956.1 2756.4,2932.2 
			2749.9,2928.4 2749.9,2922 2726.9,2936.9 2726.9,2947.8 2723.4,2942.9 2708.2,2939.7 2712.8,2933.2 2709.9,2926.7 2698.6,2938.1 
			2697.2,2929.5 2718.7,2906.2 2703.3,2880.4 2654.3,2901.7 2646.4,2910.6 2631,2910.5 2630.8,2929.6 	"/>
		</g>
		<text transform="matrix(1 0 0 1 2684.2329 3019.9595)" class="text text-eng">KYOTO</text>
		<text transform="matrix(1 0 0 1 2569.5647 2895.5591)" class="text text-jpn">京都府</text>
	</g>
	<g id="JP-27" class="prefecture">
		<g class="pref-shape">
		<polygon class="st0" points="2795.1,3219.5 2794.6,3148.6 2803.2,3126.6 2807.6,3127.4 2809.9,3119.9 2785.4,3078.4 2777.1,3079.3 
			2774.9,3091.8 2759.5,3087.1 2757.4,3074.6 2733.3,3066.7 2734.4,3060.6 2728.4,3060.6 2728.4,3082.1 2749,3088.2 2743.9,3118.8 
			2751.8,3131.3 2752.6,3146.6 2739,3156.2 2737.2,3166.8 2740.3,3176.9 2748.9,3179.5 2737.1,3190.9 2720.3,3216.3 2698.1,3231.7 
			2684.4,3236.6 2677.7,3236.3 2677.3,3236.8 2683.4,3248.9 	"/>
		</g>
		<text transform="matrix(1 0 0 1 2655.5464 3211.5632)" class="text text-eng">OSAKA</text>
		<text transform="matrix(1 0 0 1 2654.2983 3210.7832)" class="text text-jpn">大阪府</text>
	</g>
	<g id="JP-28" class="prefecture">
		<g class="pref-shape">
		<polygon class="st0" points="2752.6,3146.6 2751.8,3131.3 2743.9,3118.8 2749,3088.2 2728.4,3082.1 2728.4,3060.6 2734.4,3060.6 
			2737.9,3041.3 2699.3,3030.2 2689.9,3007.2 2669.7,3012 2640.5,2994.2 2647.9,2972.8 2665.2,2972.4 2667.8,2939.5 2645.7,2947.2 
			2630.8,2929.6 2631,2910.5 2622.9,2910.4 2585.2,2908.5 2577.6,2911.5 2563.7,2907.2 2542.3,2916.2 2533.4,2919.7 2560.1,3002.2 
			2542.9,3016.2 2536.1,3013.3 2532.8,3019.9 2537.9,3034.3 2529.8,3036.1 2509.7,3072.5 2508.4,3108.7 2524.6,3137.7 2538.5,3136 
			2549.4,3129.3 2567.5,3126.3 2583.2,3125.2 2603.1,3125.7 2623.3,3141.4 2647.6,3154.8 2669.8,3161.1 2692.9,3154.9 2709.5,3141.9 
			2728.6,3139 2740.8,3145.4 2739,3156.2 	"/>
		<polygon class="st0" points="2593.6,3234.8 2586.8,3245.2 2590.2,3254 2596.6,3256.8 2596.6,3261.3 2603.3,3269.2 2615.1,3267.4 
			2648.6,3248.5 2645.7,3239.2 2636.3,3229.3 2636.9,3213.4 2653,3192.3 2658.6,3180.2 2664.8,3170.3 2658.5,3166.8 2618.9,3202 
			2598.6,3236.6 	"/>
		</g>
		<text transform="matrix(1 0 0 1 2549.8936 3078.8215)" class="text text-eng">HYOGO</text>
		<text transform="matrix(1 0 0 1 2552.9102 3081.5303)" class="text text-jpn">兵庫県</text>
	</g>
	<g id="JP-29" class="prefecture">
		<g class="pref-shape">
		<polygon class="st0" points="2870.7,3174.8 2879.5,3149.5 2872.5,3133.5 2869.3,3143.4 2860,3141.9 2858.4,3135.6 2843.5,3134.3 
			2839.3,3143.1 2814.5,3141 2806.5,3130.9 2807.6,3127.4 2803.2,3126.6 2794.6,3148.6 2795.1,3219.5 2791.2,3220.5 2796.5,3248.4 
			2804.6,3250.7 2806.6,3266 2794.7,3261.8 2768.7,3296.2 2786.5,3318.6 2783,3344 2836.6,3341.3 2843.6,3323.4 2868.9,3308 
			2881,3308.7 2881,3209.5 2905.4,3204.3 2907.2,3190.2 	"/>
		</g>
		<text transform="matrix(1 0 0 1 2914.2954 3389.2007)" class="text text-eng">NARA</text>
		<text transform="matrix(1 0 0 1 2902.8667 3390.0718)" class="text text-jpn">奈良県</text>
	</g>
	<g id="JP-30" class="prefecture">
		<g class="pref-shape">
		<polygon class="st0" points="2786.5,3318.6 2768.7,3296.2 2794.7,3261.8 2806.6,3266 2804.6,3250.7 2796.5,3248.4 2791.2,3220.5 
			2683.4,3248.9 2677.3,3236.8 2670.9,3244.8 2670.6,3250.5 2684.6,3258.7 2687.6,3271.2 2694.4,3268.7 2696,3278.1 2685.1,3281.7 
			2675.8,3297.5 2690.1,3303.6 2688.3,3312.3 2675,3317.9 2674.7,3324.7 2678.1,3324.8 2671.6,3332.4 2670,3338.8 2671.1,3345.2 
			2685.2,3342.3 2698.5,3360.3 2705.2,3364 2707.1,3368.3 2723.1,3373.3 2736.6,3383.4 2737,3388.7 2728.6,3389.2 2724.8,3392.3 
			2727.3,3397.5 2737,3403.1 2736.7,3411.1 2740.8,3420.3 2755.5,3428.3 2778.8,3436.3 2804.8,3443.2 2814.4,3443.2 2806.8,3451.6 
			2820.4,3450.9 2817.2,3444.1 2827.4,3434.3 2851.6,3419.8 2864.3,3382.2 2849.8,3381.2 2832.5,3351.7 2836.6,3341.3 2783,3344 	"/>
		</g>
		<text transform="matrix(1 0 0 1 2594.8286 3408.0029)" class="text text-eng">WAKAYAMA</text>
		<text transform="matrix(1 0 0 1 2640.2104 3404.3032)" class="text text-jpn">和歌山県</text>
	</g>
	<g id="JP-31" class="prefecture">
		<g class="pref-shape">
		<polygon class="st0" points="2282.8,3019.2 2289.3,3030.2 2278.8,3038.9 2279.8,3054.8 2306,3056.9 2331.6,3041.5 2331.1,3028.8 
			2356,3025.6 2354.7,3014.5 2364.4,3012.2 2372,2990 2407.7,2996.5 2420.5,3011.3 2452.9,2987.1 2484.1,3008.4 2489.5,3029.7 
			2529.7,3012 2535.6,3014.4 2536.1,3013.3 2542.9,3016.2 2560.1,3002.2 2533.4,2919.7 2519.6,2925.2 2507.8,2934.6 2464.8,2942.9 
			2456.2,2940.8 2434.7,2946.7 2419,2946.9 2393.2,2949.2 2368.8,2940.9 2338.9,2950.7 2333,2960.1 2321.5,2950.7 2316.1,2937.5 
			2310.7,2938.8 2316.1,2952.4 2324.5,2964 2331.5,2969.2 2331,2973.1 2325.5,2969 2313.8,2969 2312.6,3006.4 	"/>
		</g>
		<text transform="matrix(1 0 0 1 2345.8379 2985.2275)" class="text text-eng">TOTTORI</text>
		<text transform="matrix(1 0 0 1 2355.7534 2980.0601)" class="text text-jpn">鳥取県</text>
	</g>
	<g id="JP-32" class="prefecture">
		<g class="pref-shape">
		<polygon class="st0" points="1979.6,3197.2 1985.9,3211.1 2002.6,3210.8 1999.2,3228.2 2011,3242.8 2038.5,3239.1 2049.5,3227 
			2044.8,3213 2058.5,3201.8 2054.5,3193.5 2071.6,3176 2077.5,3141.3 2100.1,3119.3 2107.2,3126.2 2189.5,3108.6 2189.6,3100.8 
			2179.3,3094.4 2189,3081.7 2194.9,3084.6 2226.3,3046.9 2240.2,3055 2248.6,3047.8 2256.5,3054.6 2279.6,3051.9 2278.8,3038.9 
			2289.3,3030.2 2282.8,3019.2 2312.6,3006.4 2313.8,2969 2307.3,2969 2302.3,2971.6 2297.3,2968.8 2282.6,2964.6 2276.3,2969 
			2240.5,2974.5 2233.3,2963 2254.4,2957.8 2280.8,2961.9 2287.6,2962.6 2292.4,2966 2297.1,2965.2 2299.8,2962.2 2295.3,2951.3 
			2303.2,2946.8 2299.8,2935.4 2315.1,2933.2 2313.1,2929.9 2277.8,2932.8 2267.4,2923.3 2244.2,2938.3 2243.5,2945.2 2195.8,2956.2 
			2200.9,2960.4 2174.3,2965.3 2183.2,2973 2181.8,2987.4 2169.6,3004.5 2145.5,3016.3 2122.8,3037.9 2097.1,3064.3 2073.7,3082.9 
			2042.9,3108.8 2019.2,3131.4 2002.6,3147.5 1980.3,3149.8 1990.6,3177.2 	"/>
		</g>
		<text transform="matrix(1 0 0 1 1999.2334 3075.3105)" class="text text-eng">SHIMANE</text>
		<text transform="matrix(1 0 0 1 2037.3684 3080.1812)" class="text text-jpn">島根県</text>
	</g>
	<g id="JP-33" class="prefecture">
		<g class="pref-shape">
		<polygon class="st0" points="2529.8,3036.1 2537.9,3034.3 2532.8,3019.9 2535.6,3014.4 2529.7,3012 2489.5,3029.7 2484.1,3008.4 
			2452.9,2987.1 2420.5,3011.3 2407.7,2996.5 2372,2990 2364.4,3012.2 2354.7,3014.5 2356,3025.6 2331.1,3028.8 2331.6,3041.5 
			2306,3056.9 2305.3,3056.8 2316.7,3072.4 2311.2,3098.9 2327.3,3119.6 2323.9,3138.4 2331.2,3173.6 2346,3202.1 2346.2,3202 
			2351.1,3192.3 2358.7,3200.5 2367.4,3201.4 2392.9,3184.8 2393.7,3196.3 2400,3200.6 2397.3,3192.3 2405.9,3196.7 2409.1,3207.7 
			2416.6,3208.9 2415.7,3202.7 2424.1,3199.4 2438.4,3205.2 2442.4,3196.7 2450.2,3185.5 2452.9,3187 2460.7,3176.1 2471.6,3172.5 
			2486.9,3166.8 2495.4,3150.3 2512.3,3136.3 2519.3,3138.3 2524.6,3137.7 2508.4,3108.7 2509.7,3072.5 	"/>
		</g>
		<text transform="matrix(1 0 0 1 2307.9175 3081.7632)" class="text text-eng">OKAYAMA</text>
		<text transform="matrix(1 0 0 1 2342.3279 3104.8049)" class="text text-jpn">岡山県</text>
	</g>
	<g id="JP-34" class="prefecture">
		<g class="pref-shape">
		<polygon class="st0" points="2346,3202.1 2331.2,3173.6 2323.9,3138.4 2327.3,3119.6 2311.2,3098.9 2316.7,3072.4 2305.3,3056.8 
			2279.8,3054.8 2279.6,3051.9 2256.5,3054.6 2248.6,3047.8 2240.2,3055 2226.3,3046.9 2194.9,3084.6 2189,3081.7 2179.3,3094.4 
			2189.6,3100.8 2189.5,3108.6 2107.2,3126.2 2100.1,3119.3 2077.5,3141.3 2071.6,3176 2054.5,3193.5 2058.5,3201.8 2058.4,3201.9 
			2062.7,3207.4 2060.6,3227.4 2071.5,3235.5 2078.9,3259.4 2094,3259.9 2092.3,3256.4 2108.8,3242.4 2122.5,3228.8 2147.3,3232.4 
			2151,3245.8 2154.6,3257.2 2159.9,3257.7 2155,3262.1 2156.8,3268.3 2163.8,3268.2 2170,3260.2 2177.3,3265.9 2185,3263.2 
			2188,3258.7 2204.2,3255.9 2211.8,3239.8 2221.7,3242 2238.6,3233.3 2254.5,3234.9 2264.5,3232.5 2268.7,3220.9 2276.2,3222 
			2297.6,3214.5 2301.5,3208.9 2307.4,3210.4 2304.5,3218 2323.1,3225.3 2340.3,3211.7 2337.5,3205.2 	"/>
		</g>
		<text transform="matrix(1 0 0 1 2086.1985 3190.033)" class="text text-eng">HIROSHIMA</text>
		<text transform="matrix(1 0 0 1 2133.5759 3181.3691)" class="text text-jpn">広島県</text>
	</g>
	<g id="JP-35" class="prefecture">
		<g class="pref-shape">
		<polygon class="st0" points="2071.5,3235.5 2060.6,3227.4 2062.7,3207.4 2058.4,3201.9 2044.8,3213 2049.5,3227 2038.5,3239.1 
			2011,3242.8 1999.2,3228.2 2002.6,3210.8 1985.9,3211.1 1979.6,3197.2 1990.6,3177.2 1980.3,3149.8 1978.7,3149.9 1974.7,3155.2 
			1967.7,3151.8 1962.6,3160.6 1955.7,3165.9 1954.5,3174.4 1943.3,3184.9 1937.8,3183.8 1934.2,3189.2 1937.1,3194.8 1921.9,3204.3 
			1921.9,3211.6 1909.5,3214.5 1901.9,3219.8 1889,3219.4 1894.5,3210.9 1877.8,3211.6 1881.3,3220.8 1875.1,3224.6 1871.6,3214.5 
			1857.6,3211.8 1845.4,3214.5 1839.4,3208.9 1828.1,3218.6 1845.9,3217.6 1849.6,3224 1822.4,3228 1817.1,3245.3 1826.7,3258.3 
			1825.9,3262.8 1828.7,3267.5 1826.7,3274.9 1815.6,3283.2 1815.6,3291.4 1821.8,3301.5 1824.9,3310.1 1824.2,3328.3 1818.1,3327.3 
			1823.2,3336.7 1827.9,3334.3 1828.1,3328.1 1842.9,3318.9 1844.1,3310.4 1852.5,3301.7 1871,3316.2 1875.8,3328.6 1888.8,3336.1 
			1911.8,3325.4 1923.2,3308.1 1923,3319.9 1936.5,3319.6 1945.1,3308.1 1951.2,3316.1 1964.1,3307.6 1967.4,3310 1999.4,3301 
			2004.6,3303.9 2010.6,3307.5 1996.5,3322.1 2007.4,3323.6 2007.4,3317.4 2014,3312.1 2043.2,3334.3 2051,3339.7 2056.3,3337.7 
			2066.9,3346.2 2071.6,3354.4 2076.8,3355.1 2080.3,3350.5 2073.2,3340.2 2068.5,3327 2083.4,3326 2091.4,3304.1 2087.6,3287.4 
			2095.4,3278.7 2097.1,3266.5 2094,3259.9 2078.9,3259.4 	"/>
		</g>
		<text transform="matrix(1 0 0 1 1824.9573 3291.9329)" class="text text-eng">YAMAGUCHI</text>
		<text transform="matrix(1 0 0 1 1872.4456 3285.7107)" class="text text-jpn">山口県</text>
	</g>
	<g id="JP-36" class="prefecture">
		<g class="pref-shape">
		<path class="st0" d="M2585.3,3347.4c0,0,11.8-13.8,9.6-13.9s0-5.8,0-5.8l-11.6-15l-5.1,5.5l-3.7-16.3l9.2-28.7l-10.3-7.6l-1-8.7
			l-3.1,5.1l-7.6-2l-12.3,4.1l-4.7-1.3l-2.5,12.9l-51.9-1.9l-7.9,5.3l-0.4,5.6l-30.2,14.5l-14.9-8.9l-45.2,22.9l-5.6,36.4l51.1,16.2
			l14.6-9.5l10.4,4.2l6.7,29.2l21,3.9l-4.9,16.7l15.8,12.8c0.7,0.1,17.9,1.4,17.4,3.1c-0.5,1.7,11.6-12.1,11.6-12.1l3.5-12l16.2-7.1
			l22.5-18.1l35.3-21.2L2585.3,3347.4z"/>
		</g>
		<text transform="matrix(1 0 0 1 2403.2593 3343.4294)" class="text text-eng">TOKUSHIMA</text>
		<text transform="matrix(1 0 0 1 2423.4109 3345.1533)" class="text text-jpn">徳島県</text>
	</g>
	<g id="JP-37" class="prefecture">
		<g class="pref-shape">
		<polygon class="st0" points="2436.8,3290.2 2451.7,3299.2 2481.9,3284.7 2482.3,3279.1 2490.2,3273.8 2542.1,3275.7 2544.6,3262.8 
			2538.6,3261.1 2532.1,3252.3 2508.3,3245.9 2507.1,3240.5 2508.6,3237.4 2506.1,3231.7 2495.7,3227 2491.8,3234.9 2487.4,3235 
			2487.3,3221.1 2478.1,3219.6 2471.2,3223.4 2471.2,3231.7 2455.3,3229.4 2450.2,3225.8 2431.6,3220.8 2432.8,3228 2422.2,3235.5 
			2388.5,3261.1 2375.4,3253.8 2363.1,3250 2380.5,3267.9 2381.5,3284.8 2374.5,3304.8 2372.1,3307.6 2391.7,3313.2 	"/>
		<path class="st0" d="M2485.6,3192.5l-5.3,7.8l3.5,3.1l8.3-6.7l7.7,2.9c0,0-1.4,15.6-0.1,15.5s6.5,0,6.5,0l0.6-8.9l10.6,0.4l5.1,2.2
			l3.1-20.5l-3.1-10l-17,3.4l-12.8,6.8l-5.5-1.8L2485.6,3192.5z"/>
		</g>
		<text transform="matrix(1 0 0 1 2359.5142 3258.0664)" class="text text-eng">KAGAWA</text>
		<text transform="matrix(1 0 0 1 2382.7766 3259.9717)" class="text text-jpn">香川県</text>
	</g>
	<g id="JP-38" class="prefecture">
		<g class="pref-shape">
		<polygon class="st0" points="2175.6,3529.8 2174,3514.2 2188.8,3526.2 2210.1,3493.8 2231.7,3482.5 2212.8,3446.3 2253.6,3442.6 
			2291,3366.1 2386.3,3347.7 2391.6,3313.2 2391.7,3313.2 2372.1,3307.6 2359.7,3322.1 2344.5,3320.7 2332.5,3317.4 2301.9,3323.9 
			2279.4,3335.4 2265,3325.4 2247,3288.8 2240.3,3281.7 2229.2,3287.1 2236.3,3290.9 2234.6,3298.4 2204.2,3313.8 2200.3,3336.1 
			2192.3,3339.6 2190.9,3348 2188,3356.6 2188.7,3373.5 2167.4,3397.5 2146.4,3408.1 2129.7,3428.8 2106.4,3441 2095.4,3445.6 
			2079.1,3450.6 2080.8,3457.2 2068.5,3459.1 2053.4,3468.3 2053.4,3475.6 2068.2,3465.6 2068.2,3471.8 2077.5,3469.3 2090,3457.5 
			2112.7,3445.3 2125.3,3447.7 2126.6,3455.6 2123.7,3465.3 2127.4,3474.4 2120.7,3479.6 2131.6,3483.4 2148.1,3484.3 2142.6,3494.1 
			2147.4,3498.2 2148.1,3509 2143.6,3513.2 2131.1,3506.6 2127.1,3512.7 2134.3,3523.5 2138.8,3529.5 2143.5,3540.3 2142.9,3553 
			2149.2,3564.3 2143.4,3566.1 2145.9,3571.4 2136.9,3574.3 2142.3,3583 2149.2,3584.3 2158.6,3579.5 2164.1,3577 2169.2,3582.5 
			2178.2,3579.2 2182.2,3579.5 2182.2,3534.9 	"/>
		</g>
		<text transform="matrix(1 0 0 1 2122.5183 3418.1343)" class="text text-eng">EHIME</text>
		<text transform="matrix(1 0 0 1 2127.0508 3390.0718)" class="text text-jpn">愛媛県</text>
	</g>
	<g id="JP-39" class="prefecture">
		<g class="pref-shape">
		<path class="st0" d="M2500.6,3423C2500.6,3423,2500.7,3423,2500.6,3423l-15.7-12.8l4.9-16.7l-21-3.9l-6.7-29.2l-10.4-4.2l-14.6,9.5
			l-51.1-16.2l0.3-1.9l-95.3,18.4l-37.4,76.5l-40.8,3.6l18.9,36.2l-21.6,11.3l-21.3,32.5l-14.8-12l1.7,15.6l6.6,5.1v44.7l9.3,0.7
			l0.9,7.6l-10.9,13.4l-5.6,16.9l17.6-7.4l6.5,8.6l11.9,1.7l12.5-9l11.8,1.3l8.1,13l10.3,1.6l-0.5-10.6c0,0-11.7-10.5-12-11
			c-0.4-0.5-1.4-11.9-1.4-11.9l9.5-2.7l1.4-25.2l6.5-14l11.1,2.4l18.2-33.4l7.4,3.3l7.2-32.8l6-26.1l6.5,7.8l28.2-13.4l1.5-8.7
			l22-12.4l35.6-10.1l37.9,13.4l21.9,24.7l28.5,35.7l7.9-37.2l14.4-31.9L2500.6,3423z"/>
		</g>
		<text transform="matrix(1 0 0 1 2301.0737 3409.7307)" class="text text-eng">KOCHI</text>
		<text transform="matrix(1 0 0 1 2296.0508 3411.9453)" class="text text-jpn">高知県</text>
	</g>
	<g id="JP-40" class="prefecture">
		<g class="pref-shape">
		<path class="st0" d="M1740.1,3548.4l19.5-16.6l14.4,1.6l3.1-11.7l35.3,12.7l7.2-16l-10-20l6.8-8l-5-12.7l7.2-22.8l24.2-18.4l36-0.6
			l0.8-27.2l-1.6-0.6l-12.6,1.7c0,0-16.8-25.1-16.8-25.1c0,0-3.3-24.3-3.3-24.3l-5.8,2.9l-5.3-6.6l5.4-11.6l7.6-19.1h-11.8l-2.7,5.7
			l-8.2,12.7l-7.4-4.2l6.1-0.8l-7.4-10.4l-10.3-2.7l-8.7,4.3l-2.1,4.5l-11.1-4.2l-7,4.2l-6.2,6l-9.1,3.4l-14-1.6l-1.7,4.2l-7.1,6.4
			l-8.7,7.5l1.3,6.2l2.2,10.4l-6.7,5.7l-10.6,12.2l-11,4.4l7.2,3.4l12-10.2l2.5,3.1l-3.4,11.9l-8.2,6.3l-11.1-1.9l-2.9,4.7l-6.9-1.3
			l1.3-5l-7.3-1.1l-1.5-10l-6-1.8l-8.7,10.4l-14.4,6l4.2,10.8l6,5l-20.4,9.3l-1.9,5.5l48.1,0.2l33.1,19.2l22.8-16.1l-0.8,29l-4.8-0.8
			l-16.9,14.6l-15.4,24.6l-2.8,13.7l17.7,17.8l-3,9l1.2,6.7l18.2-4.1L1740.1,3548.4z"/>
		</g>
		<text transform="matrix(1 0 0 1 1672.2603 3429.0603)" class="text text-eng">FUKUOKA</text>
		<text transform="matrix(1 0 0 1 1717.0457 3420.8699)" class="text text-jpn">福岡県</text>
	</g>
	<g id="JP-41" class="prefecture">
		<g class="pref-shape">
		<polygon class="st0" points="1726.9,3464.3 1693.7,3445.1 1645.7,3444.9 1644.1,3449.3 1636.6,3450 1626.6,3444.9 1630.8,3437.4 
			1624.2,3425.9 1611.2,3424.4 1604.9,3434.7 1608.1,3449.3 1601.3,3440.4 1596.1,3450.6 1608.1,3461.1 1608.8,3467 1598.4,3460.4 
			1600.4,3472.5 1606.9,3476.2 1602.7,3485.7 1599.1,3476.6 1589.1,3486.7 1599.8,3500.7 1602.5,3517 1627.9,3521.3 1631.4,3534.1 
			1622.8,3536.1 1648.5,3563 1684.7,3573.6 1687.7,3568.8 1664.4,3536.5 1683.2,3513.2 1704.7,3525.1 1708.9,3529.4 1711.8,3515.7 
			1727.1,3491.1 1744,3476.5 1748.8,3477.2 1749.7,3448.2 	"/>
		</g>
		<text transform="matrix(1 0 0 1 1605.9321 3491.8726)" class="text text-eng">SAGA</text>
		<text transform="matrix(1 0 0 1 1493.1382 3456.3423)" class="text text-jpn">佐賀県</text>
	</g>
	<g id="JP-42" class="prefecture">
		<g class="pref-shape">
		<path class="st0" d="M1622.8,3536.1l8.6-2l-3.4-12.7l-25.4-4.3l-2.7-16.3l-10.6-14l9.9-10.1l-2.9-7.3l-4.6,0.8l-15.5,2.4l-2.2-6.9
			l-7.2,3.9l-13.3-2.1l0.8,7.2l-4.2,5.4l5.5,5.9l-8.7,20.3l12,2.6l9.5,10.2l6.2,7.2l-5.8,2.6l1.8,5.5l7.9-2l1.3-11.5l4.7,8.9l8-3.3
			l-7.4,11.6l7.3,10.7l1-7.4l9.5,8.8l10.3-4.7l14.6,15.2l-3.3,18.5l14.6,20.4l-20.9-8.9c0,0-10.2,9.3-10.7,9.3
			c-0.5,0-9.6-8.3-9.6-8.3l3-12.5l1.3-13.3l-9.7-9.1l-6.3,3.3l2.6-11.5l-16-12.2l-3.8,17.9l-4.8,19.5l9.4,23.8l18.2,8.2l13.3,22.8
			l-1.7,13.2l-15.8,18l-1.3,6.4l14.1-6.4l18.7-16.8l8.4-14.3c0,0,4.7-10,4-10.2s18.1-0.7,18.1-0.7l26.4-6.7l0.8,7.6l5.1,3.2l-2.9,8.6
			c0,0-13.8,7.5-13.7,7.6c0,0.1,10.5,21.7,10.5,21.7l17.5-11.7l20.2-9.4l0.9-7.5c0,0,2.8-19,2.6-19.3c-0.1-0.3-16.9-22.8-16.9-22.8
			l-11.1,2.8l-17.5,6.3l-14-2.9l21.7-12l5.9-9.2l-36.2-10.6L1622.8,3536.1z"/>
		<polygon class="st0" points="1500.9,3157.9 1495.5,3178 1502.3,3182.8 1492.8,3198.5 1492.8,3207.8 1490.2,3224.5 1483.6,3225.8 
			1484.4,3229.8 1494.8,3231 1496.7,3230.6 1503.5,3224.3 1505.9,3231 1505.4,3235.1 1497.8,3233.4 1500.5,3238.7 1505.9,3241.3 
			1513.7,3235.8 1516.6,3214.4 1510.9,3207.6 1516.7,3196.8 1527.5,3185.6 1531.8,3171.7 1534.4,3153.5 1526.1,3143.1 1513.7,3157.2 
				"/>
		<path class="st0" d="M1477.5,3234.2l3.8,2.3l2.2,3.1l7.4,1.5v-3.4l6.6,3.4l7,1.7l1.2,4.4l-4.1,2.5l-1.7,11.6l-4,2.6l0.7,13.9
			l-6.4,8.7l-9.9,9.6c0,0-3.9-8.4-3-7.7c0.9,0.7-7.3,1.5-7.3,1.5l2-27.8l1.3-8.5L1477.5,3234.2z"/>
		</g>
		<text transform="matrix(1 0 0 1 1467.1743 3613.1667)" class="text text-eng">NAGASAKI</text>
		<text transform="matrix(1 0 0 1 1518.5459 3616.562)" class="text text-jpn">長崎県</text>
	</g>
	<g id="JP-43" class="prefecture">
		<g class="pref-shape">
		<path class="st0" d="M1733.2,3776.6l24.3-8.6l2.5-7.7l25.9,19.7l51.1-4.6l8.2-12.9l19,4.1v-10.1l-11.8-11.6l3.3-9.8l3.5,1.3
			l6.8-12.9l-16.2-20.7l-6.3-19.4l9.9-21.5l9.6,1l34.8-59.5l10.4-1.2l-27.2-68.2l-18.6-23.7l-23,10l8.6,19.5l-8.8,16.1l-26.3-22.7
			l-0.5,1l-35.3-12.7l-3.1,11.7l-14.4-1.6l-19.5,16.6l2.9,10.4l-18.2,4.1l2.8,15.9l35.3,28.2l-1.7,9.3l2.9,14.4l-9.3,3.8l-23.1,16.6
			l2,5l37.9-8.4l-0.6,6.3l-20.7,22.8l4.9,18.1l-18.5,28.1l-4.9,11.6l-18.3,27.6c0,0-0.3,0.4-0.8,1.1l9.1,13L1733.2,3776.6z"/>
		<polygon class="st0" points="1645.7,3672.6 1647.9,3687.9 1635.7,3712.6 1638.9,3726.7 1650.3,3730 1655.7,3729.1 1653.5,3735.1 
			1641.2,3733.2 1634.8,3740.9 1640.9,3750 1639.2,3756 1654.3,3752.7 1664.5,3743.2 1670.4,3729.1 1682.7,3727 1685.3,3713.6 
			1679.8,3705.5 1681.1,3690.4 1679.9,3675 1672.1,3669 1659.1,3671.2 1650.4,3677.7 	"/>
		</g>
		<text transform="matrix(1 0 0 1 1582.4194 3718.8594)" class="text text-eng">KUMAMOTO</text>
		<text transform="matrix(1 0 0 1 1694.1082 3719.8782)" class="text text-jpn">熊本県</text>
	</g>
	<g id="JP-44" class="prefecture">
		<g class="pref-shape">
		<path class="st0" d="M2044.8,3583.6l16.4-9.9l-15.7,0.4c0,0-13.4-4.3-14.4-3.6s-5.7-6.5-5.7-6.5l6.5-13l17.7-5.2l-3.5-7.5
			l-16.7,3.3h-11.1l11.1-13.2l-21.3,1.9l1.1-7.5l11.4-11.1v-9.7l4.9-0.6l0.7-6.1l-7.9,1.6l-20.2,4.4l-11.4-4.4l-19.2-2.3l-3.5,3.8
			l-17.9-6.3l-0.6-19.6l5-1.4l3.9,2.7l8.5,2l3.9-5.1l8.3-0.6l-3.2-12.9l12.4,3.3l8.2-14.4l1.8-18.8l-8.4-23.1l-15.7-10.8l-18.3,0.5
			l-13.9,12.6l-9.5,15l-28.8-4.7l-20.4-8l-0.8,27.2l-36,0.6l-24.2,18.4l-7.2,22.8l5,12.7l-6.8,8l10,20l-6.7,14.9l26.3,22.7l8.8-16.1
			l-8.6-19.5l23-10l18.6,23.7l26.6,66.6l4.9,0.4l3.1,6.8l24.6-6.7l8.4,8.3l-2.3,6.7l13.8,4.5l3.1-4.2l18.1,0.9l8-3.6l3.7-12.4l24.6,4
			l-2.4,10.4l3.3,11.3l7.4-17.5l14.9,2.1l7.6-10.6l-13-3.1l13.5-9.1L2044.8,3583.6z"/>
		</g>
		<text transform="matrix(1 0 0 1 1904.0596 3560.6274)" class="text text-eng">OITA</text>
		<text transform="matrix(1 0 0 1 1844.3345 3495.2795)" class="text text-jpn">大分県</text>
	</g>
	<g id="JP-45" class="prefecture">
		<g class="pref-shape">
		<polygon class="st0" points="2015.2,3615.8 2017.6,3605.4 1992.9,3601.4 1989.2,3613.8 1981.2,3617.3 1963.1,3616.4 1960,3620.6 
			1946.1,3616.1 1948.5,3609.4 1940,3601.2 1915.4,3607.9 1912.4,3601.1 1907.4,3600.7 1908,3602.2 1897.6,3603.4 1862.8,3662.9 
			1853.2,3661.9 1843.3,3683.4 1849.6,3702.8 1865.8,3723.5 1859,3736.4 1855.5,3735.1 1852.2,3744.9 1864.1,3756.5 1864.1,3766.6 
			1845.1,3762.5 1836.9,3775.4 1787.3,3779.8 1782,3790.9 1795.2,3799 1801.6,3817.9 1823.8,3823.9 1816.3,3851.9 1838.7,3858.3 
			1855.1,3892.8 1879.9,3895.5 1877,3936.5 1886.9,3938.7 1892.6,3954.3 1911.7,3961.1 1918.1,3944.1 1926.8,3905.4 1935.8,3896.9 
			1943,3858.1 1934,3848.4 1937,3822.6 1972.3,3705.9 1980.7,3702.9 1982.4,3697 1979.1,3693 1977.8,3687.7 1985.9,3689.9 
			1990.3,3684.4 1985.2,3677.1 1988.5,3661.4 1996.5,3659.3 2000.9,3642.5 2014.8,3635.5 2018.4,3627 	"/>
		</g>
		<text transform="matrix(1 0 0 1 1827.3528 3816.9976)" class="text text-eng">MIYAZAKI</text>
		<text transform="matrix(1 0 0 1 1822.9924 3818.479)" class="text text-jpn">宮崎県</text>
	</g>
	<g id="JP-46" class="prefecture">
		<g class="pref-shape">
		<path class="st0" d="M1855.1,3892.8l-16.4-34.4l-22.3-6.5l7.5-28l-22.2-6l-6.4-18.9l-13.2-8.1l5.4-11.1l-1.5,0.1l-25.9-19.7
			l-2.5,7.7l-24.3,8.6l-11.6-0.4l-9.1-13c-2.5,3.6-10.4,15-11.4,15.4c-1.2,0.5-15.9-6.2-15.9-6.2l-8.5,5.7c0,0,0.3,6.7-0.6,6.6
			s4.9,9.1,4.9,9.1s-5.1,10.3-7.2,10.8s5.9,4.3,5.9,4.3l4.5,20.3l-4.9,14.1l-6.1,11.9l4.5,9.9l27.7,22.8l3,27.5l-9.1,23.5l-14.4,14.4
			l-13.5-11.3l-8.6,5.4c0,0,16.6,16.6,16.2,16.6c-0.5,0-5.8,4.7-5.8,4.7l9.7,5.3l-2.9,3.6l3.5,9.5l49.2,0.8l9.9,13.8l3.5,6.9
			l12.7,1.3l10.1-5.7l5.8-19.8l-21.9-19.1c0,0,0.6-13.4,0.6-13.4c0,0.1-5.5-4.2-5.5-4.2l-3.3-22.2l9.2-12.8v-9.3l10.5-14.3l-0.8-10.6
			l13-8.1l23.7,7.9l5.7,10.6l-8.2,18.2l-12.2,3.3l-0.2-8.8l-5.3-6.4l-14.1,1.5l-6.8,9.8l8.3,8.1l12.4-0.4l2.9,3.1l-3.1,3l3.1,11.9
			l19.2,34.2l-5,21.2l-5.3,24l-17.6,18.3l-0.6,19.8c0,0,64.8-36.2,63.8-36.7c-0.9-0.5,10.2-17.4,10.2-17.4l16.3-9.6l4.9-7l-9.9-1.5
			l4.7-3.5l1.4-6.4l-18-6l7.1-19.2l13.1-8.4l10.3,2.3l2.9-41L1855.1,3892.8z"/>
		<polygon class="st0" points="1812.4,4181.9 1816.2,4208.8 1833.5,4201.7 1834.8,4182 1842.9,4159.6 1849,4157.7 1857.3,4123.4 
			1859.5,4100.2 1855.3,4090.4 1846.6,4093.6 1839.4,4117 1830.8,4129.1 1830.6,4152.5 	"/>
		<polygon class="st0" points="1735.7,4180.5 1725,4197 1717.6,4197.1 1717.6,4210.3 1726.7,4228.9 1737.7,4234.9 1756.4,4233.7 
			1770.1,4220.5 1775.9,4207.7 1775.6,4199.5 1754.6,4186 	"/>
		</g>
		<text transform="matrix(1 0 0 1 1558.3538 3862.9419)" class="text text-eng">KAGOSHIMA</text>
		<text transform="matrix(1 0 0 1 1613.2339 3862.5027)" class="text text-jpn">鹿児島県</text>
	</g>
	<g id="JP-47" class="prefecture">
		<g class="pref-shape">
		<polygon class="st0" points="1164.9,5215.5 1158.6,5219.6 1164,5231.6 1161.4,5246.9 1167.1,5252.8 1186.2,5235.2 1191.1,5235.2 
			1197.9,5225.6 1194.4,5220.9 1186.6,5225.6 1185.2,5218.3 1201.6,5186.1 1212.6,5197.4 1216.1,5192.8 1206,5179.4 1205.2,5174.6 
			1197.7,5165.3 1205.8,5158.1 1222,5162.9 1224.7,5152.9 1241.9,5141 1240.2,5134.4 1246.2,5134.4 1249.7,5137.7 1262.1,5129.8 
			1259.6,5122.5 1264.7,5115.8 1274.9,5116.5 1288,5101.2 1299.1,5080.5 1298.1,5069.7 1283.6,5055.8 1279.4,5070.4 1263.5,5086 
			1252.3,5107.1 1233.8,5114.6 1226.6,5109.7 1231.7,5100.3 1207.5,5097.3 1207.5,5111.3 1210.9,5119.6 1227.7,5125.7 1222.7,5138.6 
			1201.3,5146.2 1190.2,5162.1 1173.2,5163.6 1181.4,5191.8 1175.1,5202.6 	"/>
		<path class="st0" d="M1463.3,4719.3l23.1,9.4c0,0,12.9,19.8,14.2,19.9c1.3,0.1,11.9,4.8,11.9,4.8l-2.6-12.3l7.5,2l15.4-15.7
			l-10.3-8l10.3-9.1l11.5-7.1l25.5-19.5l8-4.5l5.3-14l-7.3-10.3l-9.7,4.7l2.8,7.3l-9.9,6.1l1.6-7.8l-20.3,9.2l-3.9,10.8l-7.8-4
			l-48.3,24.4l6.5,8.5L1463.3,4719.3z"/>
		<polygon class="st0" points="1415.7,4806.7 1412.6,4832.2 1415.2,4840.1 1411.3,4848.7 1422.8,4864 1432.6,4860.7 1440.8,4838.9 
			1428.3,4823.4 1428.4,4807.4 	"/>
		</g>
		<text transform="matrix(1 0 0 1 1260.4868 5167.4741)" class="text text-eng">OKINAWA</text>
		<text transform="matrix(1 0 0 1 1285.4363 5170.7769)" class="text text-jpn">沖縄県</text>
	</g>
	<g id="JP-Lines">
		<line class="line-jpn" x1="2795.8" y1="2888.3" x2="2872.7" y2="2983.4"/>
		<line class="line-eng" x1="3500.8" y1="3188.4" x2="3422.4" y2="2958.7"/>
		<line class="line-jpn line-eng" x1="3585.5" y1="3103.8" x2="3536.8" y2="2978.4"/>
		<line class="line-jpn line-eng" x1="2912.7" y1="3344" x2="2851.4" y2="3277.7"/>
	</g>
</g>
</svg>
